# xmcd
#
# Track frame offsets: 
#        150
#        21257
#        41125
#        61523
#        78202
#        98543
#        117660
#        141300
#        157078
#        177167
#
# Disc length: 2645 seconds
#
# Revision: 0
# Processed by: cddbd v1.5PL3 Copyright (c) Steve Scherf et al.
# Submitted via: ExactAudioCopy v0.90b4
#
DISCID=7e0a530a
DTITLE=Scott Kirby - 4 Good Dogs
DYEAR=2003
DGENRE=Ballad
TTITLE0=Lucky Enought
TTITLE1=4 Good Dogs
TTITLE2=Heart Of A Beach Town
TTITLE3=Not Getting Older
TTITLE4=My Cathedral
TTITLE5=Devil In The Mirror
TTITLE6=A Day In My Life
TTITLE7=I'm Breakin Up
TTITLE8=The Gift Of Silence
TTITLE9=Christmas In Key West
EXTD=
EXTT0=
EXTT1=
EXTT2=
EXTT3=
EXTT4=
EXTT5=
EXTT6=
EXTT7=
EXTT8=
EXTT9=
PLAYORDER=
